<svg width="24" height="24" viewBox="0 0 24 24" fill="none" xmlns="http://www.w3.org/2000/svg">
<path d="M20 16V8.5C20 7.672 19.359 7 18.52 7C18 7 17 7.3 17 8.5V5.5C17 4.672 16.359 4 15.52 4C15.013 4 14 4.3 14 5.5V3.5C14 2.672 13.359 2 12.52 2C11.68 2 11 2.672 11 3.5V5.5C11 4.3 10.007 4 9.5 4C8.66 4 8 4.691 8 5.52V14" stroke="white" stroke-width="2" stroke-linecap="round" stroke-linejoin="round"/>
<path d="M11 5.5V11" stroke="white" stroke-width="2" stroke-linecap="round" stroke-linejoin="round"/>
<path d="M14 5.5V11" stroke="white" stroke-width="2" stroke-linecap="round" stroke-linejoin="round"/>
<path d="M17 5.5V11" stroke="white" stroke-width="2" stroke-linecap="round" stroke-linejoin="round"/>
<path d="M19.9998 15.9999C19.9998 19.9999 16.8658 21.9999 12.9998 21.9999C9.13385 21.9999 7.80385 20.9999 4.80385 15.9999L3.23285 13.3949C2.69685 12.5269 3.12585 11.4009 4.11385 11.0809C4.43691 10.9754 4.78462 10.9718 5.10982 11.0705C5.43503 11.1692 5.72201 11.3656 5.93185 11.6329L7.99985 14.0329" stroke="white" stroke-width="2" stroke-linecap="round" stroke-linejoin="round"/>
</svg>
