<svg width="129" height="30" viewBox="0 0 129 30" fill="none" xmlns="http://www.w3.org/2000/svg">
<path d="M19.3008 23.6875H9.90625L8.26562 29H0.941406L11.3711 0.5625H17.8164L28.3242 29H20.9609L19.3008 23.6875ZM11.5469 18.3945H17.6602L14.5938 8.53125L11.5469 18.3945ZM37.2695 23.7266H49.2031V29H30.4141V0.5625H37.2695V23.7266ZM62.6602 18.9609H58.9492V29H52.0938V0.5625H63.2852C66.6576 0.5625 69.2943 1.3112 71.1953 2.80859C73.0964 4.30599 74.0469 6.42188 74.0469 9.15625C74.0469 11.1354 73.6432 12.776 72.8359 14.0781C72.0417 15.3802 70.7917 16.4349 69.0859 17.2422L75.0234 28.707V29H67.6797L62.6602 18.9609ZM58.9492 13.668H63.2852C64.5872 13.668 65.5638 13.3294 66.2148 12.6523C66.8789 11.9622 67.2109 11.0052 67.2109 9.78125C67.2109 8.55729 66.8789 7.60026 66.2148 6.91016C65.5508 6.20703 64.5742 5.85547 63.2852 5.85547H58.9492V13.668ZM100.492 0.5625V19.1758C100.492 21.2852 100.043 23.1146 99.1445 24.6641C98.2461 26.2005 96.957 27.3724 95.2773 28.1797C93.5977 28.987 91.612 29.3906 89.3203 29.3906C85.8568 29.3906 83.1289 28.4922 81.1367 26.6953C79.1445 24.8984 78.1289 22.4375 78.0898 19.3125V0.5625H84.9844V19.4492C85.0625 22.5612 86.5078 24.1172 89.3203 24.1172C90.7396 24.1172 91.8138 23.7266 92.543 22.9453C93.2721 22.1641 93.6367 20.8945 93.6367 19.1367V0.5625H100.492ZM128.07 25.4844C127.016 26.6562 125.473 27.6003 123.441 28.3164C121.41 29.0326 119.184 29.3906 116.762 29.3906C113.038 29.3906 110.062 28.2513 107.836 25.9727C105.609 23.694 104.418 20.5234 104.262 16.4609L104.242 14C104.242 11.2005 104.737 8.75911 105.727 6.67578C106.716 4.57943 108.129 2.97135 109.965 1.85156C111.814 0.71875 113.949 0.152344 116.371 0.152344C119.913 0.152344 122.66 0.966146 124.613 2.59375C126.579 4.20833 127.725 6.6237 128.051 9.83984H121.449C121.215 8.2513 120.707 7.11849 119.926 6.44141C119.145 5.76432 118.038 5.42578 116.605 5.42578C114.887 5.42578 113.559 6.15495 112.621 7.61328C111.684 9.07161 111.208 11.1549 111.195 13.8633V15.582C111.195 18.4206 111.677 20.556 112.641 21.9883C113.617 23.4076 115.147 24.1172 117.23 24.1172C119.014 24.1172 120.342 23.7201 121.215 22.9258V18.5117H116.449V13.8047H128.07V25.4844Z" fill="#2F333D"/>
</svg>
