<svg width="20" height="19" viewBox="0 0 20 19" fill="none" xmlns="http://www.w3.org/2000/svg">
<path d="M9.029 1.36082C9.32605 1.21825 9.66022 1.14343 10 1.14343C10.3398 1.14343 10.674 1.21825 10.971 1.36082L18.486 4.96836C18.6418 5.04324 18.7716 5.15276 18.862 5.28557C18.9524 5.41839 19 5.56967 19 5.72375V12.8412C18.9999 13.1494 18.9045 13.452 18.7235 13.7177C18.5426 13.9833 18.2828 14.2023 17.971 14.3519L10.971 17.714C10.674 17.8566 10.3398 17.9314 10 17.9314C9.66022 17.9314 9.32605 17.8566 9.029 17.714L2.029 14.3519C1.71736 14.2023 1.45763 13.9835 1.27671 13.718C1.0958 13.4526 1.00026 13.1501 1 12.842V5.72375C0.999993 5.56967 1.04764 5.41839 1.13802 5.28557C1.22839 5.15276 1.3582 5.04324 1.514 4.96836L9.03 1.36082H9.029Z" stroke="white" stroke-width="2" stroke-linecap="round" stroke-linejoin="round"/>
<path d="M10 9.53701V18.1799M1 5.21558L10 9.53701L1 5.21558ZM10 9.53701L19 5.21558L10 9.53701Z" stroke="white" stroke-width="2" stroke-linejoin="round"/>
<path d="M5.5 7.37625L14.5 3.05481" stroke="white" stroke-width="2" stroke-linecap="round" stroke-linejoin="round"/>
<path d="M4 9.82043L7 11.2648" stroke="white" stroke-width="2" stroke-linecap="round" stroke-linejoin="round"/>
</svg>
