<svg width="24" height="25" viewBox="0 0 24 25" fill="none" xmlns="http://www.w3.org/2000/svg">
<path d="M12 6.00879L13.434 8.79009L16.5 9.23624L14.25 11.2664L15 14.2708L12 12.5809L9 14.2708L9.75 11.2664L7.5 9.23624L10.65 8.79009L12 6.00879Z" fill="#FFCE29"/>
<path d="M13.302 22.5328L12 21.7817L15 16.5241H19.5C19.6971 16.5244 19.8923 16.4857 20.0744 16.4103C20.2565 16.3349 20.422 16.2243 20.5613 16.0848C20.7007 15.9452 20.8111 15.7795 20.8864 15.5971C20.9617 15.4147 21.0003 15.2192 21 15.0219V6.00877C21.0003 5.81142 20.9617 5.61594 20.8864 5.43356C20.8111 5.25117 20.7007 5.08545 20.5613 4.9459C20.422 4.80635 20.2565 4.69571 20.0744 4.62032C19.8923 4.54494 19.6971 4.50629 19.5 4.50658H4.5C4.30293 4.50629 4.10775 4.54494 3.92562 4.62032C3.7435 4.69571 3.57803 4.80635 3.43868 4.9459C3.29933 5.08545 3.18885 5.25117 3.11358 5.43356C3.0383 5.61594 2.9997 5.81142 3 6.00877V15.0219C2.9997 15.2192 3.0383 15.4147 3.11358 15.5971C3.18885 15.7795 3.29933 15.9452 3.43868 16.0848C3.57803 16.2243 3.7435 16.3349 3.92562 16.4103C4.10775 16.4857 4.30293 16.5244 4.5 16.5241H11.25V18.0263H4.5C3.70435 18.0263 2.94129 17.7097 2.37868 17.1463C1.81607 16.5829 1.5 15.8187 1.5 15.0219V6.00877C1.4999 5.6142 1.57743 5.22348 1.72816 4.85893C1.87889 4.49438 2.09986 4.16314 2.37846 3.88414C2.65706 3.60513 2.98781 3.38384 3.35183 3.23289C3.71585 3.08194 4.10601 3.0043 4.5 3.00439H19.5C19.894 3.0043 20.2841 3.08194 20.6482 3.23289C21.0122 3.38384 21.3429 3.60513 21.6215 3.88414C21.9001 4.16314 22.1211 4.49438 22.2718 4.85893C22.4226 5.22348 22.5001 5.6142 22.5 6.00877V15.0219C22.5 15.8187 22.1839 16.5829 21.6213 17.1463C21.0587 17.7097 20.2956 18.0263 19.5 18.0263H15.8738L13.302 22.5328Z" fill="#FFCE29"/>
</svg>
