<svg width="30" height="32" viewBox="0 0 30 32" fill="none" xmlns="http://www.w3.org/2000/svg">
<path d="M26 22.1125H9L4 1.41333H1M5 5.35603H29L26 18.1698H8L5 5.35603Z" stroke="#2F333D" stroke-width="2" stroke-linecap="round" stroke-linejoin="round"/>
<path d="M24 28.0266C25.1046 28.0266 26 27.144 26 26.0552C26 24.9665 25.1046 24.0839 24 24.0839C22.8954 24.0839 22 24.9665 22 26.0552C22 27.144 22.8954 28.0266 24 28.0266Z" stroke="#2F333D" stroke-width="2" stroke-linecap="round" stroke-linejoin="round"/>
<path d="M11 28.0266C12.1046 28.0266 13 27.144 13 26.0552C13 24.9665 12.1046 24.0839 11 24.0839C9.89543 24.0839 9 24.9665 9 26.0552C9 27.144 9.89543 28.0266 11 28.0266Z" stroke="#2F333D" stroke-width="2" stroke-linecap="round" stroke-linejoin="round"/>
<ellipse cx="24" cy="26.0552" rx="6" ry="5.91407" fill="#FFCE29"/>
<path d="M26.1826 26.1772C26.1826 27.1799 25.9987 27.9416 25.6309 28.4624C25.263 28.98 24.721 29.2388 24.0049 29.2388C23.3018 29.2388 22.763 28.9849 22.3887 28.4771C22.0143 27.966 21.8223 27.2238 21.8125 26.2505V24.9761C21.8125 23.9767 21.998 23.2199 22.3691 22.7056C22.7402 22.1912 23.2822 21.9341 23.9951 21.9341C24.6982 21.9341 25.2354 22.1831 25.6064 22.6812C25.9775 23.1759 26.1696 23.9067 26.1826 24.8735V26.1772ZM25.5967 24.9028C25.5967 24.089 25.4632 23.4738 25.1963 23.0571C24.9326 22.6405 24.5322 22.4321 23.9951 22.4321C23.4678 22.4321 23.0706 22.6356 22.8037 23.0425C22.5368 23.4494 22.4001 24.05 22.3936 24.8442V26.2407C22.3936 27.0513 22.5303 27.6714 22.8037 28.1011C23.0804 28.5308 23.4808 28.7456 24.0049 28.7456C24.5257 28.7456 24.9196 28.5356 25.1865 28.1157C25.4567 27.6958 25.5934 27.0806 25.5967 26.27V24.9028Z" fill="#2F333D"/>
</svg>
