<svg width="20" height="19" viewBox="0 0 20 19" fill="none" xmlns="http://www.w3.org/2000/svg">
<path d="M9.029 1.21739C9.32605 1.07482 9.66022 1 10 1C10.3398 1 10.674 1.07482 10.971 1.21739L18.486 4.82493C18.6418 4.89981 18.7716 5.00933 18.862 5.14214C18.9524 5.27496 19 5.42623 19 5.58031V12.6977C18.9999 13.006 18.9045 13.3086 18.7235 13.5742C18.5426 13.8399 18.2828 14.0588 17.971 14.2085L10.971 17.5706C10.674 17.7131 10.3398 17.788 10 17.788C9.66022 17.788 9.32605 17.7131 9.029 17.5706L2.029 14.2085C1.71736 14.0589 1.45763 13.8401 1.27671 13.5746C1.0958 13.3091 1.00026 13.0067 1 12.6986V5.58031C0.999993 5.42623 1.04764 5.27496 1.13802 5.14214C1.22839 5.00933 1.3582 4.89981 1.514 4.82493L9.03 1.21739H9.029Z" stroke="#FFCE29" stroke-width="2" stroke-linecap="round" stroke-linejoin="round"/>
<path d="M10 9.39358V18.0365M1 5.07214L10 9.39358L1 5.07214ZM10 9.39358L19 5.07214L10 9.39358Z" stroke="#FFCE29" stroke-width="2" stroke-linejoin="round"/>
<path d="M5.5 7.23281L14.5 2.91138" stroke="#FFCE29" stroke-width="2" stroke-linecap="round" stroke-linejoin="round"/>
<path d="M4 9.677L7 11.1214" stroke="#FFCE29" stroke-width="2" stroke-linecap="round" stroke-linejoin="round"/>
</svg>
