<svg width="24" height="23" viewBox="0 0 24 23" fill="none" xmlns="http://www.w3.org/2000/svg">
<path d="M18.4863 22.6266C18.2621 22.626 18.0386 22.6014 17.8197 22.5533C13.6507 21.6909 9.81007 19.6689 6.73966 16.72C3.73477 13.7646 1.65072 10.0017 0.739661 5.88664C0.632235 5.37378 0.658602 4.8419 0.816224 4.34218C0.973846 3.84246 1.25742 3.39172 1.63966 3.03331L4.30633 0.46664C4.44253 0.337832 4.60437 0.239193 4.78127 0.177161C4.95818 0.11513 5.14617 0.0910999 5.33299 0.10664C5.5267 0.126849 5.71363 0.189249 5.88064 0.289452C6.04765 0.389656 6.19067 0.52523 6.29966 0.68664L9.63299 5.61331C9.758 5.80447 9.81834 6.03071 9.80513 6.25873C9.79193 6.48675 9.70589 6.70451 9.55966 6.87997L7.88633 8.87997C8.55276 10.3549 9.49656 11.688 10.6663 12.8066C11.8285 13.9658 13.2022 14.8914 14.713 15.5333L16.7863 13.8866C16.9605 13.749 17.1724 13.6677 17.3939 13.6534C17.6154 13.6391 17.836 13.6925 18.0263 13.8066L23.0597 17.06C23.2324 17.1631 23.3795 17.304 23.4901 17.4721C23.6006 17.6401 23.6717 17.8311 23.698 18.0305C23.7243 18.2299 23.7051 18.4328 23.6419 18.6237C23.5787 18.8147 23.4731 18.9889 23.333 19.1333L20.733 21.7066C20.4377 22.0005 20.0871 22.2331 19.7015 22.391C19.316 22.5489 18.903 22.629 18.4863 22.6266ZM5.22633 1.42664L2.55966 3.99331C2.34463 4.19367 2.18545 4.44656 2.09778 4.7271C2.01012 5.00763 1.99698 5.30615 2.05966 5.59331C2.90681 9.45473 4.85414 12.9882 7.66633 15.7666C10.5558 18.541 14.1701 20.4429 18.093 21.2533C18.3899 21.3154 18.6976 21.3028 18.9885 21.2167C19.2794 21.1306 19.5444 20.9737 19.7597 20.76L22.3597 18.1866L17.4997 15.0466L15.273 16.82C15.1877 16.8874 15.0873 16.933 14.9804 16.9528C14.8735 16.9725 14.7634 16.9659 14.6597 16.9333C12.8108 16.2521 11.1353 15.1708 9.75299 13.7666C8.32323 12.4314 7.21341 10.7906 6.50633 8.96664C6.47641 8.85622 6.47542 8.73995 6.50344 8.62903C6.53146 8.51812 6.58756 8.41627 6.66633 8.33331L8.46633 6.17997L5.22633 1.42664Z" fill="#FFCE29"/>
</svg>
